<?xml version="1.0" standalone="no"?>
<!DOCTYPE svg PUBLIC "-//W3C//DTD SVG 20010904//EN"
 "http://www.w3.org/TR/2001/REC-SVG-20010904/DTD/svg10.dtd">
<svg version="1.0" xmlns="http://www.w3.org/2000/svg"
 width="400.000000pt" height="400.000000pt" viewBox="0 0 400.000000 400.000000"
 preserveAspectRatio="xMidYMid meet">
<metadata>
Created by potrace 1.14, written by Peter Selinger 2001-2017
</metadata>
<g transform="translate(0.000000,400.000000) scale(0.100000,-0.100000)"
fill="#000000" stroke="none">
<path d="M1344 3405 c3 -8 31 -59 62 -112 31 -54 70 -123 87 -153 16 -30 38
-66 47 -80 33 -49 90 -160 83 -161 -5 0 -151 -1 -325 -1 -288 0 -318 -2 -318
-17 0 -9 9 -27 20 -41 11 -14 20 -28 20 -33 0 -4 20 -40 44 -80 47 -77 221
-378 268 -464 l30 -53 -235 0 c-128 0 -236 -3 -239 -6 -5 -4 195 -365 221
-399 5 -5 22 -35 38 -65 17 -30 90 -158 163 -285 162 -281 152 -263 240 -415
40 -69 90 -154 110 -190 64 -113 261 -453 287 -495 13 -22 26 -48 30 -58 3 -9
10 -17 17 -17 11 0 22 17 73 110 14 25 38 65 53 90 15 25 65 110 110 190 46
80 102 178 126 217 24 40 44 75 44 77 0 2 18 34 40 70 22 36 40 70 40 76 0 5
5 10 10 10 6 0 10 5 10 10 0 6 18 40 40 76 22 36 40 68 40 70 0 2 20 37 44 77
24 39 54 92 68 117 14 25 58 101 98 170 40 69 90 154 110 190 20 36 76 132
123 214 47 82 84 153 81 158 -3 4 -108 8 -235 8 -126 0 -229 2 -229 4 0 7 61
118 80 146 9 14 31 50 47 80 17 30 63 111 103 180 40 69 86 150 103 180 16 30
34 60 39 67 5 7 7 16 4 21 -3 5 -143 9 -321 9 -173 0 -317 2 -319 4 -4 4 97
184 220 392 35 59 64 112 64 117 0 6 -243 10 -661 10 -583 0 -660 -2 -655 -15z
m1029 -185 c-14 -25 -49 -85 -78 -135 -29 -49 -64 -111 -79 -137 -25 -45 -29
-48 -69 -49 -51 -1 -272 -1 -308 0 -27 1 -42 23 -152 221 -16 30 -38 66 -47
80 -49 72 -85 65 360 65 l399 0 -26 -45z m-524 -696 c36 -62 83 -142 104 -178
21 -36 44 -66 52 -66 8 0 15 4 15 10 0 5 27 55 60 110 33 55 60 102 60 104 0
2 17 33 39 67 l38 64 182 3 c99 1 181 -1 181 -4 0 -7 -98 -181 -187 -332 l-55
-92 -341 2 -342 3 -41 70 c-52 89 -143 246 -178 308 l-27 47 187 -2 188 -3 65
-111z m173 86 l-17 -30 -17 21 c-26 31 -22 39 17 39 l34 0 -17 -30z m-473
-722 c19 -35 42 -74 51 -88 9 -14 31 -50 47 -80 17 -30 63 -111 103 -180 40
-69 84 -145 98 -170 14 -25 43 -77 66 -115 23 -39 49 -84 58 -100 9 -16 20
-31 25 -32 4 -2 32 39 61 90 28 50 60 105 70 122 9 16 35 61 58 100 23 38 52
90 66 115 14 25 58 101 98 170 40 69 86 149 102 178 l30 52 94 0 c52 0 94 -3
94 -6 0 -3 -16 -33 -36 -67 -20 -34 -44 -75 -54 -92 -9 -16 -77 -133 -150
-260 -73 -126 -150 -259 -170 -295 -20 -36 -70 -121 -110 -190 -40 -69 -86
-150 -103 -180 -54 -100 -32 -125 -267 290 -20 36 -88 153 -150 260 -142 245
-289 500 -301 523 -9 16 -2 17 88 17 l98 0 34 -62z m627 37 c-9 -13 -28 -46
-42 -72 -15 -26 -46 -81 -70 -120 -24 -40 -44 -77 -44 -82 0 -5 -6 -13 -13
-19 -12 -10 -41 36 -175 275 l-24 43 192 0 192 0 -16 -25z"/>
</g>
</svg>
